<svg width="26" height="26" viewBox="0 0 26 26" fill="none" xmlns="http://www.w3.org/2000/svg">
<rect width="26" height="26" rx="13" fill="white"/>
<path d="M9.08498 8.90871C9.85455 8.90871 10.4747 8.28904 10.4747 7.52006C10.4747 6.75107 9.85455 6.13141 9.08498 6.13141C8.31542 6.13141 7.69528 6.75107 7.69528 7.52006C7.69528 8.28904 8.31542 8.90871 9.08498 8.90871Z" fill="#03658C"/>
<path d="M16.9225 11.6113C16.153 11.6113 15.5328 12.231 15.5328 13V14.09C15.5328 14.7097 15.4805 15.2323 15.3759 15.6578C15.2788 16.061 15.1219 16.3895 14.9202 16.6358C14.7184 16.8748 14.4719 17.0465 14.1655 17.1435C13.8443 17.2481 13.4483 17.3078 13 17.3078C12.5517 17.3078 12.1632 17.2555 11.8344 17.1435C11.5206 17.039 11.2741 16.8748 11.0798 16.6358C10.8781 16.3895 10.7286 16.061 10.624 15.6578C10.5194 15.2323 10.4671 14.7097 10.4671 14.09V13C10.4671 12.231 9.84701 11.6113 9.07744 11.6113C8.30787 11.6113 7.68774 12.231 7.68774 13V14.0527C7.68774 15.1501 7.80729 16.0759 8.03143 16.8076C8.26305 17.5542 8.61421 18.1589 9.06997 18.6143C9.52574 19.0697 10.0936 19.3982 10.7585 19.5849C11.4086 19.7715 12.1557 19.8686 13 19.8686C13.8443 19.8686 14.5914 19.7715 15.2414 19.5849C15.9064 19.3908 16.4742 19.0697 16.93 18.6143C17.3858 18.1589 17.7295 17.5542 17.9685 16.8076C18.2002 16.0759 18.3122 15.1501 18.3122 14.0527V13C18.3122 12.231 17.6921 11.6113 16.9225 11.6113Z" fill="#03658C"/>
<path d="M16.9225 8.90871C17.6921 8.90871 18.3122 8.28904 18.3122 7.52006C18.3122 6.75107 17.6921 6.13141 16.9225 6.13141C16.153 6.13141 15.5328 6.75107 15.5328 7.52006C15.5328 8.28904 16.153 8.90871 16.9225 8.90871Z" fill="#03658C"/>
</svg>
